<svg xmlns="http://www.w3.org/2000/svg" xmlns:xlink="http://www.w3.org/1999/xlink">
<symbol id="divider" width="3501" height="53" viewBox="0 0 3501 53">
  <path d="M0.893066 25.1552C339.741 -35.2992 323.442 59.1609 700.893 25.1552C1078.34 -8.85037 1177.85 53.4933 1400.89 25.1552C1623.93 -3.18277 1702 96.9449 2100.89 25.1552C2499.79 -46.6344 2487.78 73.3299 2800.89 25.1552C3114.01 -23.0194 3230.67 49.7148 3500.89 25.1552" stroke-width="1" fill="none" stroke-dasharray="6 6" />
</symbol>
<symbol id="divider-top" width="3501" height="62" viewBox="0 0 3501 62">
  <path d="M700.893 25.8696C323.442 57.8988 339.741 -31.071 0.893066 25.8696V61.5492H3500.89V25.8696C3230.67 49.0018 3114.01 -19.5049 2800.89 25.8696C2487.78 71.2442 2499.79 -41.7474 2100.89 25.8696C1702 93.4867 1623.93 -0.821298 1400.89 25.8696C1177.85 52.5606 1078.34 -6.15949 700.893 25.8696Z" stroke="none" />
 <path d="M0.893066 23.7114C339.741 -33.2292 323.442 55.7406 700.893 23.7114C1078.34 -8.31769 1177.85 50.4024 1400.89 23.7114C1623.93 -2.9795 1702 91.3285 2100.89 23.7114C2499.79 -43.9056 2487.78 69.086 2800.89 23.7114C3114.01 -21.6632 3230.67 46.8436 3500.89 23.7114" stroke-width="1" fill="none" stroke-dasharray="6, 6" />
</symbol>
<symbol id="divider-bottom" width="3501" height="62" viewBox="0 0 3501 62">
  <path d="M0.893066 34.1014C339.741 -26.606 323.442 68.2493 700.893 34.1014C1078.34 -0.0465451 1177.85 62.5579 1400.89 34.1014C1623.93 5.64477 1702 106.191 2100.89 34.1014C2499.79 -37.9886 2487.78 82.4775 2800.89 34.1014C3114.01 -14.2748 3230.67 58.7637 3500.89 34.1014" stroke-width="1" fill="none" stroke-dasharray="6, 6"/>
 <path d="M700.893 31.8449C323.442 65.9928 339.741 -28.8624 0.893066 31.8449V0.683594H3500.89V31.8449C3230.67 56.5073 3114.01 -16.5312 2800.89 31.8449C2487.78 80.2211 2499.79 -40.2451 2100.89 31.8449C1702 103.935 1623.93 3.38836 1400.89 31.8449C1177.85 60.3015 1078.34 -2.30296 700.893 31.8449Z" stroke="none" />
</symbol>
<symbol id="arrow-down" viewBox="0 0 32 32">
  <path d="m16 30.465q-0.29559 0-0.55423-0.11085-0.25864-0.11085-0.48033-0.33254l-8.2765-8.2396q-0.40644-0.40644-0.40644-1.0346t0.40644-1.0715q0.44339-0.44339 1.0538-0.44339t1.0523 0.44339l5.7271 5.764v-9.1264q0-0.62813 0.42565-1.0523 0.42565-0.42417 1.0523-0.42565 0.62665-0.0015 1.0538 0.42565 0.42713 0.42713 0.42417 1.0523v9.1264l5.764-5.764q0.40644-0.40644 1.0168-0.40644 0.6104 0 1.0523 0.44339 0.40644 0.40644 0.40644 1.0346t-0.40644 1.0346l-8.2765 8.2396q-0.22169 0.22169-0.48034 0.33254-0.25864 0.11085-0.55423 0.11085m0-18.585q-0.62813 0-1.0523-0.42417-0.42417-0.42417-0.42565-1.0538v-1.478q0-0.62813 0.42565-1.0523 0.42565-0.42417 1.0523-0.42565 0.62665-0.00148 1.0538 0.42565 0.42713 0.42713 0.42417 1.0523v1.478q0 0.62813-0.42565 1.0538-0.42565 0.42565-1.0523 0.42417m0-7.3898q-0.62813 0-1.0523-0.42417-0.42417-0.42417-0.42565-1.0538-0.0015-0.62961 0.42565-1.0523 0.42713-0.42269 1.0523-0.42565 0.62517-0.00296 1.0538 0.42565 0.42861 0.42861 0.42417 1.0523-0.0044 0.6237-0.42565 1.0538-0.42122 0.43008-1.0523 0.42417" />
</symbol>
<symbol id="people" viewBox="0 0 32 32">
  <path d="M10 11a4 4 0 1 0 0-8a4 4 0 0 0 0 8m-8 4.5A2.5 2.5 0 0 1 4.5 13h6.375a5.5 5.5 0 0 0-.375 2c0 1.86.923 3.505 2.337 4.5H10.5a4 4 0 0 0-3.547 2.15c-1.916-.493-3.142-1.452-3.899-2.54C2 17.595 2 16.026 2 15.75zm23.047 6.15c1.916-.493 3.142-1.452 3.899-2.54C30 17.595 30 16.025 30 15.75v-.25a2.5 2.5 0 0 0-2.5-2.5h-6.375c.242.62.375 1.294.375 2c0 1.86-.923 3.505-2.337 4.5H21.5a4 4 0 0 1 3.547 2.15M26 7a4 4 0 1 1-8 0a4 4 0 0 1 8 0M8 23.5a2.5 2.5 0 0 1 2.5-2.5h11a2.5 2.5 0 0 1 2.5 2.5v.25c0 .275 0 1.845-1.054 3.36C21.846 28.691 19.756 30 16 30s-5.846-1.309-6.946-2.89C8 25.595 8 24.026 8 23.75zm8-4.5a4 4 0 1 0 0-8a4 4 0 0 0 0 8" />
</symbol>
<symbol id="cloudapp" viewBox="0 0 32 32">
  <path d="m16.453 2.4609c-0.28889-0.009677-0.5792-0.0064075-0.86914 0.0097656-0.77318 0.043128-1.5459 0.17765-2.3008 0.4082a1.2001 1.2001 0 0 0-0.001953 0.0019532c-2.7429 0.83873-4.8324 2.8795-5.6953 5.4434-3.8144 0.44503-6.8613 3.4902-6.8613 7.3477 0 4.1638 3.5021 7.5227 7.7422 7.5293a1.2001 1.2001 0 0 0 0.0019531 0h7.5078a1.2 1.2 0 0 0 1.2012-1.1992 1.2 1.2 0 0 0-1.2012-1.1992h-7.5059-0.0019531c-2.9879-0.0057-5.3457-2.3099-5.3457-5.1309 0-2.8216 2.3576-5.1211 5.3457-5.1211a1.2001 1.2001 0 0 0 1.1719-0.94141c0.45117-2.0305 2.0768-3.7404 4.3418-4.4336 2.2643-0.69155 4.7857-0.22165 6.5488 1.1973 1.764 1.4161 2.5186 3.5015 2.0684 5.5332a1.2001 1.2001 0 0 0 1.1719 1.459h1.3906c1.0159 0 1.9233 0.41176 2.5898 1.084a1.2 1.2 0 0 0 1.6973 0.007812 1.2 1.2 0 0 0 0.005859-1.6973c-1.0958-1.1052-2.6219-1.7949-4.293-1.7949h-0.11328c0.059899-2.4529-0.99675-4.8413-3.0137-6.4609-1.5875-1.2776-3.5598-1.9752-5.582-2.043zm9.3613 14.809a1.2 1.2 0 0 0-1.1992 1.1992v1.1211c-0.55036 0.16052-1.08 0.40209-1.5312 0.80469-0.0088 0.0078-0.012764 0.021347-0.021484 0.029297l-0.9043-0.52344a1.2 1.2 0 0 0-1.6406 0.43555 1.2 1.2 0 0 0 0.4375 1.6406l1.0215 0.5918c-0.057139 0.28114-0.17187 0.53439-0.17187 0.83789 0 0.30385 0.11461 0.55841 0.17187 0.83984l-1.0215 0.5918a1.2 1.2 0 0 0-0.4375 1.6387 1.2 1.2 0 0 0 1.6406 0.4375l0.9043-0.52539c0.0087 8e-3 0.012684 0.021437 0.021484 0.029297 0.45122 0.4026 0.98089 0.64416 1.5312 0.80469v1.1211a1.2 1.2 0 0 0 1.1992 1.2012 1.2 1.2 0 0 0 1.2012-1.2012v-1.1211c0.55025-0.16054 1.0801-0.40216 1.5312-0.80469 0.0088-0.0079 0.012754-0.021337 0.021484-0.029297l0.90625 0.52539a1.2 1.2 0 0 0 1.6406-0.4375 1.2 1.2 0 0 0-0.4375-1.6387l-1.0234-0.59375c0.05702-0.28086 0.17188-0.53472 0.17188-0.83789 0-0.3035-0.11474-0.55675-0.17188-0.83789l1.0215-0.5918a1.2 1.2 0 0 0 0.4375-1.6406 1.2 1.2 0 0 0-1.6406-0.43555l-0.9043 0.52344c-0.0087-0.0079-0.012694-0.021447-0.021484-0.029297-0.45113-0.40253-0.981-0.64415-1.5312-0.80469v-1.1211a1.2 1.2 0 0 0-1.2012-1.1992zm0 4.5156c0.43498 0 0.85489 0.15067 1.1348 0.40039 0.27988 0.24972 0.47656 0.57915 0.47656 1.2207s-0.19669 0.97098-0.47656 1.2207c-0.27988 0.24972-0.69979 0.40039-1.1348 0.40039-0.43498 0-0.85294-0.15067-1.1328-0.40039-0.27988-0.24972-0.47656-0.57915-0.47656-1.2207s0.19668-0.97098 0.47656-1.2207c0.27988-0.24972 0.69784-0.40039 1.1328-0.40039z" />
</symbol>
<symbol id="tools" viewBox="0 0 32 32">
  <path d="m5.7661 2.3287a5.6685 5.6685 0 0 1 6.8896 8.0363l17.344 17.346-2.2901 2.2901-17.346-17.346a5.6717 5.6717 0 0 1-8.0363-6.8912l3.623 3.623a2.4293 2.4293 0 0 0 3.4351-3.4351zm16.79 3.0496 5.1535-2.8634 2.2901 2.2917-2.8634 5.1518-2.8634 0.57333-3.4335 3.4351-2.2917-2.2901 3.4351-3.4351zm-10.88 13.17 2.2917 2.2901-8.5902 8.5886a1.6196 1.6196 0 0 1-2.4164-2.1492l0.12633-0.1409z" />
</symbol>
<symbol id="code" viewBox="0 0 32 32">
  <path d="m6.6461 3.768c-1.583 0-2.8781 1.2952-2.8781 2.8781 0 1.583-1.2952 2.8781-2.8781 2.8781v2.8781c1.583 0 2.8781 1.2952 2.8781 2.8781 0 1.583 1.2952 2.8781 2.8781 2.8781h2.8781v-2.8781h-2.8781v-1.4391c0-1.583-1.2952-2.8781-2.8781-2.8781 1.583 0 2.8781-1.2952 2.8781-2.8781v-1.4391h2.8781v-2.8781m5.7563 0c1.583 0 2.8781 1.2952 2.8781 2.8781 0 1.583 1.2952 2.8781 2.8781 2.8781v2.8781c-1.583 0-2.8781 1.2952-2.8781 2.8781 0 1.583-1.2952 2.8781-2.8781 2.8781h-2.8781v-2.8781h2.8781v-1.4391c0-1.583 1.2952-2.8781 2.8781-2.8781-1.583 0-2.8781-1.2952-2.8781-2.8781v-1.4391h-2.8781v-2.8781zm15.83 4.3172v17.269c0 1.5974-1.2808 2.8781-2.8781 2.8781h-23.025a2.8781 2.8781 0 0 1-2.8781-2.8781v-4.3172h2.8781v4.3172h23.025v-17.269h-4.274v-2.8781h4.274c1.5974 0 2.8781 1.2808 2.8781 2.8781" />
</symbol>
<symbol id="open-link" viewBox="0 0 32 32">
  <path d="m5.7734 1.3906a4.3831 4.3831 0 0 0-4.3828 4.3828v20.453a4.3831 4.3831 0 0 0 4.3828 4.3828h20.453a4.3831 4.3831 0 0 0 4.3828-4.3828v-7.6895a1.461 1.461 0 0 0-2.9219 0v7.6895a1.461 1.461 0 0 1-1.4609 1.4609h-20.453a1.461 1.461 0 0 1-1.4609-1.4609v-20.453a1.461 1.461 0 0 1 1.4609-1.4609h7.3301a1.461 1.461 0 0 0 0-2.9219h-7.3301zm16.012 0c-0.77434 0-1.4023 0.68514-1.4023 1.4609s0.6866 1.4609 1.4609 1.4609h3.8398l-10.734 10.75a1.407 1.407 0 0 0 0 1.9863 1.4026 1.4026 0 0 0 1.9844 0l10.754-10.77v3.877c0 0.7758 0.6866 1.4609 1.4609 1.4609 0.77434-1e-6 1.4609-0.68514 1.4609-1.4609v-7.3613c0-0.77726-0.62801-1.4043-1.4023-1.4043h-7.4219z" />
</symbol>
<symbol id="settings" viewBox="0 0 32 32">
  <path d="m13.064 1.3223a1.4678 1.4678 0 0 0-1.4316 1.1484l-0.001953 0.0039063-0.64648 2.9062c-0.58712 0.27888-1.1454 0.6018-1.6738 0.96875l-2.8418-0.89648a1.4678 1.4678 0 0 0-1.7129 0.66797l-2.9355 5.084a1.4678 1.4678 0 0 0 0.2793 1.8145l2.1973 2.0156a11.742 11.742 0 0 0 0 1.9297l-2.1973 2.0156a1.4678 1.4678 0 0 0-0.2793 1.8164l2.9355 5.084a1.4678 1.4678 0 0 0 1.7129 0.66602l2.8438-0.89453c0.52841 0.36695 1.0867 0.68987 1.6738 0.96875l0.64648 2.9082a1.4678 1.4678 0 0 0 1.4316 1.1484h5.8711a1.4678 1.4678 0 0 0 1.4336-1.1504l0.64648-2.9062c0.58712-0.27888 1.1454-0.6018 1.6738-0.96875l2.8418 0.89453a1.4678 1.4678 0 0 0 1.7129-0.66602l2.9355-5.084a1.4678 1.4678 0 0 0-0.2793-1.8164l-2.1973-2.0156a11.742 11.742 0 0 0 0-1.9297l2.1973-2.0156a1.4678 1.4678 0 0 0 0.2793-1.8164l-2.9355-5.084a1.4678 1.4678 0 0 0-1.7129-0.66602l-2.8438 0.89453c-0.52841-0.36695-1.0867-0.68987-1.6738-0.96875l-0.64648-2.9082a1.4678 1.4678 0 0 0-1.4316-1.1484h-5.8711zm7.4961 10.303a1.4678 1.4678 0 0 1 0.88086 2.4766l-5.8711 5.8711a1.4678 1.4678 0 0 1-2.0762 0l-2.9355-2.9355a1.4678 1.4678 0 0 1 2.0762-2.0742l1.8965 1.8965 4.834-4.832a1.4678 1.4678 0 0 1 1.1953-0.40234z" />
</symbol>
<symbol id="dev-tools" viewBox="0 0 16 16">
  <path d="M14.5 8.5a.5.5 0 1 0 0-1H13V6h1.5a.5.5 0 1 0 0-1H13a2 2 0 0 0-2-2V1.5a.5.5 0 1 0-1 0V3H8.5V1.5a.5.5 0 1 0-1 0V3H6V1.5a.5.5 0 1 0-1 0V3a2 2 0 0 0-2 2H1.5a.5.5 0 1 0 0 1H3v1.5H1.5a.5.5 0 1 0 0 1H3V10H1.5a.5.5 0 1 0 0 1H3a2 2 0 0 0 2 2v1.5a.5.5 0 1 0 1 0V13h1.5v1.5a.5.5 0 1 0 1 0V13H10v1.5a.5.5 0 1 0 1 0V13a2 2 0 0 0 2-2h1.5a.5.5 0 1 0 0-1H13V8.5zm-6.5 2A2.5 2.5 0 0 1 5.5 8c0-1.379 1.121-2.5 2.5-2.5s2.5 1.121 2.5 2.5s-1.121 2.5-2.5 2.5m0-4c-.827 0-1.5.673-1.5 1.5S7.173 9.5 8 9.5S9.5 8.827 9.5 8S8.827 6.5 8 6.5" />
</symbol>
<symbol id="business" viewBox="0 0 24 24">
  <path d="M13 16h-2c-.55 0-1-.45-1-1H3.01v4c0 1.1.9 2 2 2H19c1.1 0 2-.9 2-2v-4h-7c0 .55-.45 1-1 1m7-9h-4c0-2.21-1.79-4-4-4S8 4.79 8 7H4c-1.1 0-2 .9-2 2v3c0 1.11.89 2 2 2h6v-1c0-.55.45-1 1-1h2c.55 0 1 .45 1 1v1h6c1.1 0 2-.9 2-2V9c0-1.1-.9-2-2-2M10 7c0-1.1.9-2 2-2s2 .9 2 2H9.99z" />
</symbol>

</svg>