<?xml version="1.0" encoding="UTF-8"?>
<svg width="128" height="128" fill="none" version="1.1" viewBox="0 0 128 128" xmlns="http://www.w3.org/2000/svg">
 <path d="m52.333 31c-0.7004 0-1.2669 0.5693-1.2669 1.2687v8.9285c-2.542 0.2995-4.517 2.4506-4.517 5.0645v8.0778c-5.5548 1.023-10.456 2.7547-14.289 4.99-0.0964-0.2572-0.2111-0.5092-0.3613-0.7451-1.6758-2.6661-5.9925-2.9778-9.6489-0.6975-3.655 2.2833-5.2632 6.2942-3.5846 8.9574 1.0024 1.5981 2.9613 2.3429 5.1546 2.1959-0.1602 0.6938-0.2534 1.3962-0.2534 2.111 0 0.7206 0.0967 1.4312 0.2555 2.1277-2.1933-0.1469-4.1544 0.5979-5.1567 2.1959-1.6787 2.6661-0.0704 6.6736 3.5846 8.9554 3.6564 2.2804 7.9731 1.9707 9.6488-0.6954 0.1503-0.2402 0.2712-0.4954 0.3676-0.7554 6.3417 3.6905 15.595 6.0206 25.912 6.0206 19.113 0 34.604-7.9924 34.604-17.849 0-8.6836-12.026-15.914-27.955-17.516v-7.3741c0-2.8187-2.2923-5.1038-5.1193-5.1038h-1.2191v-4.9133c0-0.6979-0.5692-1.2666-1.271-1.2666-0.7004 0-1.271 0.5687-1.271 1.2666v4.9133h-2.3426v-8.8892c0-0.6994-0.568-1.268-1.2712-1.268zm39.252 10.357c-1.2519 0-2.2615 1.0036-2.27 2.2456-0.0043 1.2461 1.0071 2.2558 2.2533 2.26 8.2443 0.024 14.935 6.7236 14.917 14.946-6e-3 1.2405 1.006 2.2538 2.255 2.2581 1.244 0 2.254-1.0029 2.26-2.2476 0.031-10.698-8.682-19.429-19.414-19.461l-9e-4 -1e-3zm-1.0093 8.4235c-1.2519-0.0056-2.2692 1.0045-2.272 2.2394-0.0027 1.2504 1.0113 2.2585 2.2575 2.2641 1.9892 0 3.8481 0.7763 5.246 2.1835 1.405 1.4016 2.1717 3.2637 2.1661 5.2445-0.0057 1.2419 1.0107 2.2551 2.2516 2.2579 1.247 0.0028 2.265-1.0023 2.265-2.2456 0.014-3.1819-1.224-6.1768-3.4721-8.4319-2.2542-2.2592-5.2521-3.5048-8.4421-3.5119zm-49.663 16.775c2.2188 0 4.0187 1.7943 4.0187 4.0028 0 2.2111-1.7999 4.0048-4.0187 4.0048-2.2146 0-4.0165-1.7937-4.0165-4.0048 0-2.2083 1.8019-4.0028 4.0165-4.0028zm17.268 0c2.2159 0 4.0124 1.7943 4.0124 4.0028 0 2.2111-1.7964 4.0048-4.0124 4.0048-2.2203 0-4.0187-1.7937-4.0187-4.0048 0-2.2083 1.7984-4.0028 4.0187-4.0028zm17.263 0c2.2173 0 4.0144 1.7943 4.0144 4.0028 0 2.2111-1.7971 4.0048-4.0144 4.0048-2.2203 0-4.0187-1.7937-4.0187-4.0048 0-2.2083 1.7984-4.0028 4.0187-4.0028z" fill="#FC8500"/>
</svg>
